<?xml version="1.0" encoding="UTF-8" standalone="no"?>
<!DOCTYPE svg PUBLIC "-//W3C//DTD SVG 1.1//EN" "http://www.w3.org/Graphics/SVG/1.1/DTD/svg11.dtd">
<svg xmlns="http://www.w3.org/2000/svg" version="1.1" viewBox="0.00 0.00 500.00 300.00">
<g stroke-width="2.00" fill="none" stroke-linecap="butt">
<path stroke="#db6822" vector-effect="non-scaling-stroke" d="
  M 164.69 56.79
  C 147.79 70.09 135.41 90.43 139.46 112.48
  A 2.11 2.10 88.3 0 0 141.27 114.19
  Q 142.77 114.37 144.63 114.18
  Q 210.14 107.55 297.25 99.08
  Q 319.03 96.96 344.00 94.50
  Q 345.10 94.39 346.13 94.01
  Q 346.71 93.80 346.82 93.18
  Q 347.07 91.75 346.96 90.31
  C 345.68 73.25 336.52 59.87 322.94 49.53
  Q 316.11 44.33 309.87 41.39
  Q 278.89 26.75 244.70 28.70
  Q 231.40 29.46 218.25 32.15
  Q 188.14 38.32 164.69 56.79"
/>
<path stroke="#e39696" vector-effect="non-scaling-stroke" d="
  M 315.61 113.44
  A 0.64 0.64 0.0 0 1 316.28 114.10
  L 316.19 118.61
  A 0.64 0.64 0.0 0 0 316.89 119.26
  L 325.06 118.39
  A 0.64 0.64 0.0 0 0 325.63 117.80
  L 326.74 103.42
  A 0.64 0.64 0.0 0 0 326.04 102.74
  L 288.63 106.46
  A 0.64 0.64 0.0 0 0 288.05 107.05
  L 287.09 121.42
  A 0.64 0.64 0.0 0 0 287.80 122.10
  L 295.85 121.25
  A 0.64 0.64 0.0 0 0 296.42 120.71
  L 297.10 115.85
  A 0.64 0.64 0.0 0 1 297.64 115.31
  L 300.30 114.91
  A 0.64 0.64 0.0 0 1 301.03 115.59
  L 299.48 136.10
  A 0.64 0.64 0.0 0 1 298.89 136.69
  L 295.29 136.95
  A 0.64 0.64 0.0 0 0 294.70 137.54
  L 294.06 145.36
  A 0.64 0.64 0.0 0 0 294.77 146.05
  L 314.28 144.03
  A 0.64 0.64 0.0 0 0 314.85 143.44
  L 315.46 135.70
  A 0.64 0.64 0.0 0 0 314.71 135.02
  L 311.60 135.54
  A 0.64 0.64 0.0 0 1 310.85 134.86
  L 312.47 114.16
  A 0.64 0.64 0.0 0 1 313.07 113.57
  L 315.61 113.44"
/>
<path stroke="#e39696" vector-effect="non-scaling-stroke" d="
  M 253.42 146.67
  Q 257.45 148.98 262.80 149.11
  C 271.19 149.31 285.71 147.44 286.69 136.32
  C 287.75 124.26 277.18 123.38 268.31 123.19
  C 263.29 123.08 264.47 118.03 268.35 116.90
  Q 271.75 115.92 275.23 116.43
  Q 275.81 116.51 275.76 117.10
  L 275.49 120.30
  Q 275.41 121.32 276.42 121.16
  Q 280.27 120.56 284.14 120.40
  Q 285.29 120.35 285.37 119.20
  L 285.93 111.13
  A 1.18 1.17 17.0 0 0 285.33 110.01
  Q 278.59 106.20 269.29 107.66
  C 263.99 108.50 258.49 110.32 255.48 114.93
  C 252.13 120.07 253.06 127.84 258.84 130.78
  C 262.75 132.76 267.61 132.49 271.99 132.87
  Q 273.69 133.01 274.79 134.04
  A 2.10 2.10 0.0 0 1 275.04 136.80
  C 272.66 140.03 266.44 139.88 262.91 139.28
  A 0.66 0.66 0.0 0 1 262.36 138.63
  L 262.37 135.38
  Q 262.37 134.38 261.38 134.49
  L 253.70 135.32
  A 1.07 1.06 -1.3 0 0 252.75 136.30
  L 252.44 140.50
  Q 252.40 141.13 251.79 141.32
  Q 250.49 141.73 249.24 141.43
  Q 248.74 141.31 248.56 140.83
  L 237.65 112.06
  A 0.86 0.86 0.0 0 0 236.77 111.51
  L 217.46 113.40
  Q 216.41 113.51 216.32 114.55
  L 215.67 121.85
  Q 215.61 122.59 216.35 122.50
  L 219.28 122.17
  Q 220.20 122.06 219.79 122.89
  L 208.99 144.76
  A 1.39 1.39 0.0 0 1 208.35 145.40
  Q 207.31 145.91 206.05 145.77
  Q 204.17 145.57 204.02 147.45
  L 203.52 153.74
  Q 203.42 155.06 204.74 154.92
  L 222.97 153.06
  Q 223.67 152.99 223.73 152.28
  L 224.23 145.50
  Q 224.28 144.71 223.50 144.75
  L 221.29 144.85
  Q 220.20 144.90 220.68 143.94
  L 221.56 142.16
  A 1.94 1.90 -79.1 0 1 223.09 141.10
  L 235.18 139.96
  Q 236.29 139.85 236.58 140.93
  L 236.86 142.03
  A 1.16 1.16 0.0 0 1 235.85 143.48
  Q 233.64 143.68 233.57 144.56
  Q 233.28 148.02 233.00 151.31
  Q 232.94 152.10 233.73 152.03
  L 251.79 150.28
  Q 252.54 150.21 252.60 149.46
  L 252.80 146.99
  Q 252.86 146.34 253.42 146.67"
/>
<path stroke="#e39696" vector-effect="non-scaling-stroke" d="
  M 187.91 126.22
  Q 187.93 125.84 188.31 125.80
  L 197.96 124.79
  Q 198.56 124.73 198.71 125.32
  Q 198.93 126.25 198.71 127.24
  Q 198.35 128.83 199.97 128.66
  L 206.25 128.01
  Q 207.17 127.91 207.24 126.99
  L 208.16 115.03
  Q 208.21 114.35 207.53 114.42
  L 173.51 117.76
  Q 173.07 117.80 173.05 118.24
  L 172.60 126.04
  Q 172.56 126.72 173.23 126.74
  Q 174.55 126.80 175.86 126.28
  A 0.70 0.70 0.0 0 1 176.82 126.98
  L 175.29 147.72
  A 1.35 1.35 0.0 0 1 174.03 148.98
  L 171.55 149.15
  Q 170.81 149.20 170.75 149.94
  L 170.14 157.58
  Q 170.08 158.32 170.82 158.25
  L 189.46 156.39
  Q 190.85 156.25 190.97 154.86
  L 191.50 148.64
  Q 191.62 147.14 190.14 147.36
  L 187.53 147.75
  Q 186.39 147.92 186.46 146.77
  L 186.67 142.96
  Q 186.72 142.14 187.54 142.05
  L 196.71 141.12
  Q 196.80 141.11 196.83 141.03
  Q 197.32 139.87 197.68 131.99
  A 0.18 0.18 0.0 0 0 197.48 131.80
  L 188.15 132.80
  A 0.52 0.51 88.6 0 1 187.59 132.26
  L 187.91 126.22"
/>
<path stroke="#e39696" vector-effect="non-scaling-stroke" d="
  M 293.81 159.02
  L 292.27 179.82
  Q 292.18 181.06 290.94 181.04
  L 289.21 181.02
  Q 287.92 181.00 287.82 182.29
  L 287.24 189.28
  Q 287.15 190.33 288.20 190.21
  Q 296.60 189.24 304.86 188.59
  Q 314.45 187.83 319.77 185.16
  Q 332.01 179.04 331.21 163.76
  C 330.53 150.86 321.42 146.66 310.00 147.79
  Q 300.57 148.73 291.02 149.66
  A 1.03 1.02 89.4 0 0 290.10 150.61
  L 289.62 158.09
  Q 289.56 158.89 290.35 158.76
  L 293.03 158.31
  A 0.68 0.67 -2.4 0 1 293.81 159.02"
/>
<path stroke="#e39696" vector-effect="non-scaling-stroke" d="
  M 201.17 169.70
  L 202.04 158.88
  Q 202.09 158.31 201.51 158.36
  L 167.76 161.64
  A 0.92 0.90 89.7 0 0 166.94 162.48
  L 166.41 170.05
  Q 166.36 170.71 167.02 170.72
  Q 168.42 170.76 169.81 170.29
  A 0.67 0.66 -6.8 0 1 170.68 170.97
  L 169.11 191.99
  A 1.01 1.00 -0.4 0 1 168.18 192.92
  L 165.46 193.14
  Q 164.63 193.21 164.57 194.04
  L 164.04 201.38
  Q 163.98 202.27 164.87 202.18
  L 183.76 200.33
  A 1.18 1.17 89.7 0 0 184.82 199.25
  L 185.44 191.92
  A 0.68 0.67 -2.0 0 0 184.66 191.20
  L 181.20 191.73
  A 0.77 0.76 -3.1 0 1 180.32 190.95
  L 180.49 187.03
  A 1.08 1.08 0.0 0 1 181.47 186.00
  L 190.49 185.14
  A 0.49 0.49 0.0 0 0 190.93 184.69
  L 191.66 176.21
  A 0.37 0.37 0.0 0 0 191.26 175.81
  L 181.98 176.75
  Q 181.39 176.81 181.43 176.22
  L 181.78 170.26
  Q 181.80 169.83 182.24 169.78
  L 191.83 168.74
  A 0.82 0.81 -1.5 0 1 192.73 169.59
  L 192.58 172.06
  A 0.66 0.65 -1.5 0 0 193.31 172.75
  L 199.97 171.99
  Q 200.70 171.91 200.49 172.62
  Q 198.69 178.63 200.08 185.03
  C 202.85 197.80 216.70 199.00 227.09 195.88
  Q 240.49 191.86 243.65 178.11
  Q 243.71 177.84 243.73 178.12
  C 244.86 196.61 268.15 195.52 278.81 187.86
  Q 285.86 182.80 287.48 174.08
  C 289.40 163.83 285.71 153.58 274.50 151.78
  C 260.97 149.61 247.90 156.06 243.99 169.59
  Q 243.75 170.43 243.61 169.57
  Q 241.62 157.33 229.33 155.89
  C 218.02 154.57 206.66 159.11 201.47 169.78
  Q 201.10 170.54 201.17 169.70"
/>
<path stroke="#db6822" vector-effect="non-scaling-stroke" d="
  M 358.10 199.62
  L 149.60 220.07
  A 3.78 3.78 0.0 0 0 146.21 224.20
  L 147.18 234.13
  A 38.69 26.80 -5.6 0 0 188.30 257.03
  L 327.32 243.40
  A 38.69 26.80 -5.6 0 0 363.21 212.95
  L 362.23 203.02
  A 3.78 3.78 0.0 0 0 358.10 199.62"
/>
<path stroke="#db6822" vector-effect="non-scaling-stroke" d="
  M 239.8970 39.7620
  A 2.91 1.73 2.6 0 0 237.0685 37.9018
  A 2.91 1.73 2.6 0 0 234.0830 39.4980
  A 2.91 1.73 2.6 0 0 236.9115 41.3582
  A 2.91 1.73 2.6 0 0 239.8970 39.7620"
/>
<path stroke="#db6822" vector-effect="non-scaling-stroke" d="
  M 278.2793 42.7330
  A 1.29 1.29 0.0 0 0 277.9281 40.9428
  L 275.1559 39.0799
  A 1.29 1.29 0.0 0 0 273.3657 39.4312
  L 273.2207 39.6470
  A 1.29 1.29 0.0 0 0 273.5719 41.4372
  L 276.3441 43.3001
  A 1.29 1.29 0.0 0 0 278.1343 42.9488
  L 278.2793 42.7330"
/>
<path stroke="#db6822" vector-effect="non-scaling-stroke" d="
  M 257.0227 46.2655
  A 2.95 1.73 67.0 0 0 257.4625 42.8740
  A 2.95 1.73 67.0 0 0 254.7173 40.8345
  A 2.95 1.73 67.0 0 0 254.2775 44.2260
  A 2.95 1.73 67.0 0 0 257.0227 46.2655"
/>
<path stroke="#db6822" vector-effect="non-scaling-stroke" d="
  M 202.60 47.81
  L 200.66 46.99
  A 0.54 0.54 0.0 0 0 199.96 47.28
  L 199.88 47.46
  A 5.64 1.47 -67.1 0 0 199.04 53.23
  L 199.26 53.33
  A 5.64 1.47 -67.1 0 0 202.81 48.70
  L 202.89 48.52
  A 0.54 0.54 0.0 0 0 202.60 47.81"
/>
<path stroke="#db6822" vector-effect="non-scaling-stroke" d="
  M 226.9482 54.2945
  A 3.20 1.49 38.1 0 0 225.3494 51.1475
  A 3.20 1.49 38.1 0 0 221.9118 50.3455
  A 3.20 1.49 38.1 0 0 223.5106 53.4925
  A 3.20 1.49 38.1 0 0 226.9482 54.2945"
/>
<path stroke="#db6822" vector-effect="non-scaling-stroke" d="
  M 307.1203 53.9947
  A 3.09 1.71 -31.3 0 0 303.5916 54.1389
  A 3.09 1.71 -31.3 0 0 301.8397 57.2053
  A 3.09 1.71 -31.3 0 0 305.3684 57.0611
  A 3.09 1.71 -31.3 0 0 307.1203 53.9947"
/>
<path stroke="#db6822" vector-effect="non-scaling-stroke" d="
  M 267.7672 61.4604
  A 3.26 1.52 126.8 0 0 270.9371 59.7605
  A 3.26 1.52 126.8 0 0 271.6728 56.2396
  A 3.26 1.52 126.8 0 0 268.5029 57.9395
  A 3.26 1.52 126.8 0 0 267.7672 61.4604"
/>
<path stroke="#db6822" vector-effect="non-scaling-stroke" d="
  M 248.4645 57.2445
  A 3.08 1.81 -31.2 0 0 244.8924 57.2918
  A 3.08 1.81 -31.2 0 0 243.1955 60.4355
  A 3.08 1.81 -31.2 0 0 246.7676 60.3882
  A 3.08 1.81 -31.2 0 0 248.4645 57.2445"
/>
<path stroke="#db6822" vector-effect="non-scaling-stroke" d="
  M 192.2445 62.6550
  A 2.90 1.61 -15.5 0 0 189.0197 61.8786
  A 2.90 1.61 -15.5 0 0 186.6555 64.2050
  A 2.90 1.61 -15.5 0 0 189.8803 64.9814
  A 2.90 1.61 -15.5 0 0 192.2445 62.6550"
/>
<path stroke="#db6822" vector-effect="non-scaling-stroke" d="
  M 289.9218 66.0507
  A 1.12 1.12 0.0 0 0 289.4693 64.5328
  L 286.0739 62.6969
  A 1.12 1.12 0.0 0 0 284.5560 63.1494
  L 284.3182 63.5893
  A 1.12 1.12 0.0 0 0 284.7707 65.1072
  L 288.1661 66.9431
  A 1.12 1.12 0.0 0 0 289.6840 66.4906
  L 289.9218 66.0507"
/>
<path stroke="#db6822" vector-effect="non-scaling-stroke" d="
  M 320.2271 73.1836
  A 2.91 1.68 93.8 0 0 322.0963 70.3913
  A 2.91 1.68 93.8 0 0 320.6129 67.3764
  A 2.91 1.68 93.8 0 0 318.7437 70.1687
  A 2.91 1.68 93.8 0 0 320.2271 73.1836"
/>
<path stroke="#db6822" vector-effect="non-scaling-stroke" d="
  M 169.8372 70.2068
  A 3.14 1.47 14.7 0 0 167.1730 67.9881
  A 3.14 1.47 14.7 0 0 163.7628 68.6132
  A 3.14 1.47 14.7 0 0 166.4270 70.8319
  A 3.14 1.47 14.7 0 0 169.8372 70.2068"
/>
<path stroke="#db6822" vector-effect="non-scaling-stroke" d="
  M 215.1399 73.7652
  A 3.14 1.60 62.5 0 0 215.1092 70.2412
  A 3.14 1.60 62.5 0 0 212.2401 68.1948
  A 3.14 1.60 62.5 0 0 212.2708 71.7188
  A 3.14 1.60 62.5 0 0 215.1399 73.7652"
/>
<path stroke="#db6822" vector-effect="non-scaling-stroke" d="
  M 234.6482 70.5598
  A 3.10 1.74 -5.0 0 0 231.4083 69.0966
  A 3.10 1.74 -5.0 0 0 228.4718 71.1002
  A 3.10 1.74 -5.0 0 0 231.7117 72.5634
  A 3.10 1.74 -5.0 0 0 234.6482 70.5598"
/>
<path stroke="#db6822" vector-effect="non-scaling-stroke" d="
  M 300.4956 77.5860
  A 2.95 1.57 93.0 0 0 302.2178 74.7222
  A 2.95 1.57 93.0 0 0 300.8044 71.6940
  A 2.95 1.57 93.0 0 0 299.0822 74.5578
  A 2.95 1.57 93.0 0 0 300.4956 77.5860"
/>
<path stroke="#db6822" vector-effect="non-scaling-stroke" d="
  M 193.4880 81.5839
  A 3.18 1.53 109.7 0 0 196.0004 79.1058
  A 3.18 1.53 109.7 0 0 195.6320 75.5961
  A 3.18 1.53 109.7 0 0 193.1196 78.0742
  A 3.18 1.53 109.7 0 0 193.4880 81.5839"
/>
<path stroke="#db6822" vector-effect="non-scaling-stroke" d="
  M 244.63 79.88
  A 1.00 1.00 0.0 0 0 244.50 80.23
  L 243.94 83.38
  A 1.00 1.00 0.0 0 0 245.75 84.12
  L 248.10 80.68
  A 1.00 1.00 0.0 0 0 247.93 79.36
  L 246.87 78.45
  A 1.00 1.00 0.0 0 0 245.37 78.68
  L 244.63 79.88"
/>
<path stroke="#db6822" vector-effect="non-scaling-stroke" d="
  M 276.5608 79.4924
  A 3.01 1.75 -22.0 0 0 273.1144 78.9974
  A 3.01 1.75 -22.0 0 0 270.9792 81.7476
  A 3.01 1.75 -22.0 0 0 274.4256 82.2426
  A 3.01 1.75 -22.0 0 0 276.5608 79.4924"
/>
<path stroke="#db6822" vector-effect="non-scaling-stroke" d="
  M 160.1200 94.8785
  A 3.94 1.71 88.4 0 0 161.7193 90.8923
  A 3.94 1.71 88.4 0 0 159.9000 87.0015
  A 3.94 1.71 88.4 0 0 158.3007 90.9877
  A 3.94 1.71 88.4 0 0 160.1200 94.8785"
/>
<path stroke="#db6822" vector-effect="non-scaling-stroke" d="
  M 224.5857 91.4034
  A 3.25 1.62 35.2 0 0 222.8638 88.2062
  A 3.25 1.62 35.2 0 0 219.2743 87.6566
  A 3.25 1.62 35.2 0 0 220.9962 90.8538
  A 3.25 1.62 35.2 0 0 224.5857 91.4034"
/>
<path stroke="#db6822" vector-effect="non-scaling-stroke" d="
  M 185.5126 93.4097
  A 3.28 1.47 38.9 0 0 183.8831 90.2060
  A 3.28 1.47 38.9 0 0 180.4074 89.2903
  A 3.28 1.47 38.9 0 0 182.0369 92.4940
  A 3.28 1.47 38.9 0 0 185.5126 93.4097"
/>
<path stroke="#e39696" vector-effect="non-scaling-stroke" d="
  M 226.37 131.25
  A 0.45 0.45 0.0 0 0 226.83 131.88
  L 232.98 131.22
  A 0.45 0.45 0.0 0 0 233.36 130.63
  L 230.83 122.81
  A 0.45 0.45 0.0 0 0 229.99 122.77
  L 226.37 131.25"
/>
<path stroke="#e39696" vector-effect="non-scaling-stroke" d="
  M 312.00 177.81
  C 317.94 176.11 320.81 169.74 319.82 163.90
  C 318.51 156.17 312.04 156.59 305.62 157.74
  Q 305.04 157.85 304.99 158.44
  L 303.45 178.53
  A 0.44 0.44 0.0 0 0 303.91 179.00
  Q 308.43 178.84 312.00 177.81"
/>
<path stroke="#e39696" vector-effect="non-scaling-stroke" d="
  M 257.6325 181.0993
  A 12.04 10.16 132.2 0 0 273.2466 179.0047
  A 12.04 10.16 132.2 0 0 273.8075 163.2607
  A 12.04 10.16 132.2 0 0 258.1934 165.3553
  A 12.04 10.16 132.2 0 0 257.6325 181.0993"
/>
<path stroke="#e39696" vector-effect="non-scaling-stroke" d="
  M 213.5904 185.3226
  A 12.04 10.16 132.6 0 0 229.2187 183.3371
  A 12.04 10.16 132.6 0 0 229.8896 167.5974
  A 12.04 10.16 132.6 0 0 214.2613 169.5829
  A 12.04 10.16 132.6 0 0 213.5904 185.3226"
/>
<path stroke="#f7d18b" vector-effect="non-scaling-stroke" d="
  M 220.64 230.23
  A 0.41 0.41 0.0 0 1 220.28 229.75
  L 220.53 228.33
  A 0.41 0.41 0.0 0 1 220.93 227.99
  L 223.54 227.95
  A 0.41 0.41 0.0 0 0 223.95 227.55
  L 223.99 226.43
  A 0.41 0.41 0.0 0 0 223.63 226.01
  L 220.84 225.70
  A 0.41 0.41 0.0 0 1 220.48 225.33
  L 220.35 224.06
  A 0.41 0.41 0.0 0 1 220.73 223.61
  L 224.14 223.37
  A 0.41 0.41 0.0 0 0 224.52 222.99
  L 224.61 221.79
  A 0.41 0.41 0.0 0 0 224.20 221.35
  L 218.08 221.31
  A 0.41 0.41 0.0 0 0 217.67 221.72
  L 217.61 232.24
  A 0.41 0.41 0.0 0 0 218.02 232.65
  L 224.25 232.64
  A 0.41 0.41 0.0 0 0 224.66 232.21
  L 224.61 231.02
  A 0.41 0.41 0.0 0 0 224.25 230.63
  L 220.64 230.23"
/>
<path stroke="#f7d18b" vector-effect="non-scaling-stroke" d="
  M 233.90 223.94
  A 0.67 0.67 0.0 0 1 232.78 223.94
  L 231.67 222.24
  A 2.31 2.27 80.8 0 0 230.39 221.30
  Q 229.49 221.05 228.76 221.37
  Q 228.11 221.66 228.52 222.23
  L 231.24 226.07
  A 1.36 1.35 43.7 0 1 231.28 227.57
  L 228.56 231.85
  Q 228.11 232.56 228.95 232.64
  L 229.69 232.71
  A 1.85 1.84 24.5 0 0 231.21 232.15
  Q 232.00 231.33 232.46 230.22
  A 0.69 0.69 0.0 0 1 233.65 230.07
  L 235.03 231.89
  A 2.16 2.15 -21.0 0 0 236.95 232.74
  L 237.42 232.70
  Q 238.61 232.59 237.96 231.59
  L 235.33 227.50
  A 1.15 1.15 0.0 0 1 235.33 226.24
  L 237.98 222.23
  A 0.63 0.63 0.0 0 0 237.47 221.26
  L 237.02 221.25
  A 2.43 2.43 0.0 0 0 234.90 222.37
  L 233.90 223.94"
/>
<path stroke="#f7d18b" vector-effect="non-scaling-stroke" d="
  M 245.27 229.25
  Q 245.31 228.42 246.14 228.51
  C 251.52 229.07 252.89 222.47 248.11 221.57
  Q 245.45 221.07 242.99 221.46
  A 0.60 0.58 -5.1 0 0 242.48 222.05
  L 242.50 231.60
  A 1.08 1.07 3.7 0 0 243.44 232.66
  L 243.98 232.72
  Q 245.06 232.86 245.12 231.77
  L 245.27 229.25"
/>
<path stroke="#f7d18b" vector-effect="non-scaling-stroke" d="
  M 257.75 229.81
  Q 257.95 227.69 259.02 229.54
  Q 259.60 230.55 260.12 231.63
  A 1.90 1.90 0.0 0 0 261.86 232.70
  L 262.63 232.69
  Q 263.79 232.68 263.21 231.67
  L 261.73 229.13
  Q 261.47 228.70 261.74 228.27
  C 262.34 227.32 263.34 226.70 263.57 225.54
  C 264.43 221.18 258.83 221.06 255.75 221.38
  Q 254.99 221.46 254.99 222.22
  L 254.99 231.74
  A 0.97 0.97 0.0 0 0 256.00 232.70
  L 256.71 232.67
  Q 257.90 232.61 257.77 231.43
  Q 257.68 230.57 257.75 229.81"
/>
<path stroke="#f7d18b" vector-effect="non-scaling-stroke" d="
  M 270.54 228.67
  Q 270.63 227.97 271.33 227.97
  L 273.45 227.99
  A 0.71 0.70 -88.3 0 0 274.16 227.31
  Q 274.18 227.10 274.19 226.90
  Q 274.28 225.91 273.29 225.86
  L 271.27 225.76
  Q 270.57 225.72 270.52 225.02
  L 270.49 224.54
  Q 270.41 223.50 271.46 223.50
  L 273.74 223.49
  Q 274.62 223.49 274.72 222.61
  L 274.76 222.32
  Q 274.84 221.58 274.10 221.48
  Q 271.52 221.15 268.54 221.41
  A 0.89 0.87 -2.5 0 0 267.73 222.28
  L 267.74 231.84
  Q 267.74 232.69 268.59 232.68
  L 273.81 232.64
  Q 274.32 232.64 274.60 232.21
  Q 275.01 231.59 274.68 231.00
  Q 274.42 230.53 273.88 230.50
  L 271.30 230.32
  Q 270.33 230.25 270.46 229.30
  L 270.54 228.67"
/>
<path stroke="#f7d18b" vector-effect="non-scaling-stroke" d="
  M 281.56 223.66
  Q 281.78 223.34 282.14 223.48
  L 285.45 224.73
  A 0.79 0.79 0.0 0 0 286.50 224.16
  Q 286.74 223.15 285.91 222.53
  Q 283.30 220.58 280.49 221.61
  C 277.57 222.69 277.71 226.78 280.82 227.54
  Q 282.40 227.92 283.68 228.88
  A 0.80 0.80 0.0 0 1 283.82 230.02
  L 283.65 230.23
  A 0.81 0.80 34.7 0 1 282.63 230.41
  Q 280.93 229.39 279.26 229.17
  Q 278.69 229.10 278.58 229.67
  Q 278.36 230.91 279.49 231.64
  Q 282.86 233.81 285.59 231.83
  C 287.14 230.71 287.23 228.36 285.83 227.07
  C 284.66 225.99 282.98 226.00 281.64 225.14
  A 0.87 0.87 0.0 0 1 281.39 223.92
  L 281.56 223.66"
/>
<path stroke="#f7d18b" vector-effect="non-scaling-stroke" d="
  M 293.64 223.77
  A 0.53 0.53 0.0 0 1 294.33 223.44
  L 297.40 224.61
  Q 298.46 225.01 298.70 223.90
  Q 298.87 223.11 297.70 222.24
  Q 297.17 221.84 296.55 221.62
  Q 293.62 220.57 291.52 222.40
  C 289.84 223.86 290.75 226.91 292.91 227.48
  Q 294.55 227.92 295.85 228.78
  Q 296.23 229.03 296.21 229.49
  Q 296.20 229.71 296.08 229.89
  Q 295.52 230.79 294.57 230.33
  L 292.11 229.12
  A 0.94 0.94 0.0 0 0 290.82 230.30
  C 292.10 233.56 297.24 233.53 298.84 230.54
  C 300.60 227.26 295.99 226.02 294.08 225.27
  Q 293.26 224.95 293.53 224.11
  L 293.64 223.77"
/>
<path stroke="#f7d18b" vector-effect="non-scaling-stroke" d="
  M 245.23 224.03
  L 245.15 225.85
  A 0.53 0.53 0.0 0 0 245.66 226.40
  L 246.13 226.42
  A 2.04 1.29 2.6 0 0 248.22 225.23
  L 248.24 224.93
  A 2.04 1.29 2.6 0 0 246.26 223.55
  L 245.79 223.53
  A 0.53 0.53 0.0 0 0 245.23 224.03"
/>
<path stroke="#f7d18b" vector-effect="non-scaling-stroke" d="
  M 260.9224 224.8681
  A 1.72 1.47 -5.4 0 0 259.0717 223.5665
  A 1.72 1.47 -5.4 0 0 257.4976 225.1919
  A 1.72 1.47 -5.4 0 0 259.3483 226.4935
  A 1.72 1.47 -5.4 0 0 260.9224 224.8681"
/>
</g>
<path fill="#c62d2d" d="
  M 0.00 0.00
  L 500.00 0.00
  L 500.00 300.00
  L 0.00 300.00
  L 0.00 0.00
  Z
  M 164.69 56.79
  C 147.79 70.09 135.41 90.43 139.46 112.48
  A 2.11 2.10 88.3 0 0 141.27 114.19
  Q 142.77 114.37 144.63 114.18
  Q 210.14 107.55 297.25 99.08
  Q 319.03 96.96 344.00 94.50
  Q 345.10 94.39 346.13 94.01
  Q 346.71 93.80 346.82 93.18
  Q 347.07 91.75 346.96 90.31
  C 345.68 73.25 336.52 59.87 322.94 49.53
  Q 316.11 44.33 309.87 41.39
  Q 278.89 26.75 244.70 28.70
  Q 231.40 29.46 218.25 32.15
  Q 188.14 38.32 164.69 56.79
  Z
  M 315.61 113.44
  A 0.64 0.64 0.0 0 1 316.28 114.10
  L 316.19 118.61
  A 0.64 0.64 0.0 0 0 316.89 119.26
  L 325.06 118.39
  A 0.64 0.64 0.0 0 0 325.63 117.80
  L 326.74 103.42
  A 0.64 0.64 0.0 0 0 326.04 102.74
  L 288.63 106.46
  A 0.64 0.64 0.0 0 0 288.05 107.05
  L 287.09 121.42
  A 0.64 0.64 0.0 0 0 287.80 122.10
  L 295.85 121.25
  A 0.64 0.64 0.0 0 0 296.42 120.71
  L 297.10 115.85
  A 0.64 0.64 0.0 0 1 297.64 115.31
  L 300.30 114.91
  A 0.64 0.64 0.0 0 1 301.03 115.59
  L 299.48 136.10
  A 0.64 0.64 0.0 0 1 298.89 136.69
  L 295.29 136.95
  A 0.64 0.64 0.0 0 0 294.70 137.54
  L 294.06 145.36
  A 0.64 0.64 0.0 0 0 294.77 146.05
  L 314.28 144.03
  A 0.64 0.64 0.0 0 0 314.85 143.44
  L 315.46 135.70
  A 0.64 0.64 0.0 0 0 314.71 135.02
  L 311.60 135.54
  A 0.64 0.64 0.0 0 1 310.85 134.86
  L 312.47 114.16
  A 0.64 0.64 0.0 0 1 313.07 113.57
  L 315.61 113.44
  Z
  M 253.42 146.67
  Q 257.45 148.98 262.80 149.11
  C 271.19 149.31 285.71 147.44 286.69 136.32
  C 287.75 124.26 277.18 123.38 268.31 123.19
  C 263.29 123.08 264.47 118.03 268.35 116.90
  Q 271.75 115.92 275.23 116.43
  Q 275.81 116.51 275.76 117.10
  L 275.49 120.30
  Q 275.41 121.32 276.42 121.16
  Q 280.27 120.56 284.14 120.40
  Q 285.29 120.35 285.37 119.20
  L 285.93 111.13
  A 1.18 1.17 17.0 0 0 285.33 110.01
  Q 278.59 106.20 269.29 107.66
  C 263.99 108.50 258.49 110.32 255.48 114.93
  C 252.13 120.07 253.06 127.84 258.84 130.78
  C 262.75 132.76 267.61 132.49 271.99 132.87
  Q 273.69 133.01 274.79 134.04
  A 2.10 2.10 0.0 0 1 275.04 136.80
  C 272.66 140.03 266.44 139.88 262.91 139.28
  A 0.66 0.66 0.0 0 1 262.36 138.63
  L 262.37 135.38
  Q 262.37 134.38 261.38 134.49
  L 253.70 135.32
  A 1.07 1.06 -1.3 0 0 252.75 136.30
  L 252.44 140.50
  Q 252.40 141.13 251.79 141.32
  Q 250.49 141.73 249.24 141.43
  Q 248.74 141.31 248.56 140.83
  L 237.65 112.06
  A 0.86 0.86 0.0 0 0 236.77 111.51
  L 217.46 113.40
  Q 216.41 113.51 216.32 114.55
  L 215.67 121.85
  Q 215.61 122.59 216.35 122.50
  L 219.28 122.17
  Q 220.20 122.06 219.79 122.89
  L 208.99 144.76
  A 1.39 1.39 0.0 0 1 208.35 145.40
  Q 207.31 145.91 206.05 145.77
  Q 204.17 145.57 204.02 147.45
  L 203.52 153.74
  Q 203.42 155.06 204.74 154.92
  L 222.97 153.06
  Q 223.67 152.99 223.73 152.28
  L 224.23 145.50
  Q 224.28 144.71 223.50 144.75
  L 221.29 144.85
  Q 220.20 144.90 220.68 143.94
  L 221.56 142.16
  A 1.94 1.90 -79.1 0 1 223.09 141.10
  L 235.18 139.96
  Q 236.29 139.85 236.58 140.93
  L 236.86 142.03
  A 1.16 1.16 0.0 0 1 235.85 143.48
  Q 233.64 143.68 233.57 144.56
  Q 233.28 148.02 233.00 151.31
  Q 232.94 152.10 233.73 152.03
  L 251.79 150.28
  Q 252.54 150.21 252.60 149.46
  L 252.80 146.99
  Q 252.86 146.34 253.42 146.67
  Z
  M 187.91 126.22
  Q 187.93 125.84 188.31 125.80
  L 197.96 124.79
  Q 198.56 124.73 198.71 125.32
  Q 198.93 126.25 198.71 127.24
  Q 198.35 128.83 199.97 128.66
  L 206.25 128.01
  Q 207.17 127.91 207.24 126.99
  L 208.16 115.03
  Q 208.21 114.35 207.53 114.42
  L 173.51 117.76
  Q 173.07 117.80 173.05 118.24
  L 172.60 126.04
  Q 172.56 126.72 173.23 126.74
  Q 174.55 126.80 175.86 126.28
  A 0.70 0.70 0.0 0 1 176.82 126.98
  L 175.29 147.72
  A 1.35 1.35 0.0 0 1 174.03 148.98
  L 171.55 149.15
  Q 170.81 149.20 170.75 149.94
  L 170.14 157.58
  Q 170.08 158.32 170.82 158.25
  L 189.46 156.39
  Q 190.85 156.25 190.97 154.86
  L 191.50 148.64
  Q 191.62 147.14 190.14 147.36
  L 187.53 147.75
  Q 186.39 147.92 186.46 146.77
  L 186.67 142.96
  Q 186.72 142.14 187.54 142.05
  L 196.71 141.12
  Q 196.80 141.11 196.83 141.03
  Q 197.32 139.87 197.68 131.99
  A 0.18 0.18 0.0 0 0 197.48 131.80
  L 188.15 132.80
  A 0.52 0.51 88.6 0 1 187.59 132.26
  L 187.91 126.22
  Z
  M 293.81 159.02
  L 292.27 179.82
  Q 292.18 181.06 290.94 181.04
  L 289.21 181.02
  Q 287.92 181.00 287.82 182.29
  L 287.24 189.28
  Q 287.15 190.33 288.20 190.21
  Q 296.60 189.24 304.86 188.59
  Q 314.45 187.83 319.77 185.16
  Q 332.01 179.04 331.21 163.76
  C 330.53 150.86 321.42 146.66 310.00 147.79
  Q 300.57 148.73 291.02 149.66
  A 1.03 1.02 89.4 0 0 290.10 150.61
  L 289.62 158.09
  Q 289.56 158.89 290.35 158.76
  L 293.03 158.31
  A 0.68 0.67 -2.4 0 1 293.81 159.02
  Z
  M 201.17 169.70
  L 202.04 158.88
  Q 202.09 158.31 201.51 158.36
  L 167.76 161.64
  A 0.92 0.90 89.7 0 0 166.94 162.48
  L 166.41 170.05
  Q 166.36 170.71 167.02 170.72
  Q 168.42 170.76 169.81 170.29
  A 0.67 0.66 -6.8 0 1 170.68 170.97
  L 169.11 191.99
  A 1.01 1.00 -0.4 0 1 168.18 192.92
  L 165.46 193.14
  Q 164.63 193.21 164.57 194.04
  L 164.04 201.38
  Q 163.98 202.27 164.87 202.18
  L 183.76 200.33
  A 1.18 1.17 89.7 0 0 184.82 199.25
  L 185.44 191.92
  A 0.68 0.67 -2.0 0 0 184.66 191.20
  L 181.20 191.73
  A 0.77 0.76 -3.1 0 1 180.32 190.95
  L 180.49 187.03
  A 1.08 1.08 0.0 0 1 181.47 186.00
  L 190.49 185.14
  A 0.49 0.49 0.0 0 0 190.93 184.69
  L 191.66 176.21
  A 0.37 0.37 0.0 0 0 191.26 175.81
  L 181.98 176.75
  Q 181.39 176.81 181.43 176.22
  L 181.78 170.26
  Q 181.80 169.83 182.24 169.78
  L 191.83 168.74
  A 0.82 0.81 -1.5 0 1 192.73 169.59
  L 192.58 172.06
  A 0.66 0.65 -1.5 0 0 193.31 172.75
  L 199.97 171.99
  Q 200.70 171.91 200.49 172.62
  Q 198.69 178.63 200.08 185.03
  C 202.85 197.80 216.70 199.00 227.09 195.88
  Q 240.49 191.86 243.65 178.11
  Q 243.71 177.84 243.73 178.12
  C 244.86 196.61 268.15 195.52 278.81 187.86
  Q 285.86 182.80 287.48 174.08
  C 289.40 163.83 285.71 153.58 274.50 151.78
  C 260.97 149.61 247.90 156.06 243.99 169.59
  Q 243.75 170.43 243.61 169.57
  Q 241.62 157.33 229.33 155.89
  C 218.02 154.57 206.66 159.11 201.47 169.78
  Q 201.10 170.54 201.17 169.70
  Z
  M 358.10 199.62
  L 149.60 220.07
  A 3.78 3.78 0.0 0 0 146.21 224.20
  L 147.18 234.13
  A 38.69 26.80 -5.6 0 0 188.30 257.03
  L 327.32 243.40
  A 38.69 26.80 -5.6 0 0 363.21 212.95
  L 362.23 203.02
  A 3.78 3.78 0.0 0 0 358.10 199.62
  Z"
/>
<path fill="#efa216" d="
  M 139.46 112.48
  C 135.41 90.43 147.79 70.09 164.69 56.79
  Q 188.14 38.32 218.25 32.15
  Q 231.40 29.46 244.70 28.70
  Q 278.89 26.75 309.87 41.39
  Q 316.11 44.33 322.94 49.53
  C 336.52 59.87 345.68 73.25 346.96 90.31
  Q 347.07 91.75 346.82 93.18
  Q 346.71 93.80 346.13 94.01
  Q 345.10 94.39 344.00 94.50
  Q 319.03 96.96 297.25 99.08
  Q 210.14 107.55 144.63 114.18
  Q 142.77 114.37 141.27 114.19
  A 2.11 2.10 88.3 0 1 139.46 112.48
  Z
  M 239.8970 39.7620
  A 2.91 1.73 2.6 0 0 237.0685 37.9018
  A 2.91 1.73 2.6 0 0 234.0830 39.4980
  A 2.91 1.73 2.6 0 0 236.9115 41.3582
  A 2.91 1.73 2.6 0 0 239.8970 39.7620
  Z
  M 278.2793 42.7330
  A 1.29 1.29 0.0 0 0 277.9281 40.9428
  L 275.1559 39.0799
  A 1.29 1.29 0.0 0 0 273.3657 39.4312
  L 273.2207 39.6470
  A 1.29 1.29 0.0 0 0 273.5719 41.4372
  L 276.3441 43.3001
  A 1.29 1.29 0.0 0 0 278.1343 42.9488
  L 278.2793 42.7330
  Z
  M 257.0227 46.2655
  A 2.95 1.73 67.0 0 0 257.4625 42.8740
  A 2.95 1.73 67.0 0 0 254.7173 40.8345
  A 2.95 1.73 67.0 0 0 254.2775 44.2260
  A 2.95 1.73 67.0 0 0 257.0227 46.2655
  Z
  M 202.60 47.81
  L 200.66 46.99
  A 0.54 0.54 0.0 0 0 199.96 47.28
  L 199.88 47.46
  A 5.64 1.47 -67.1 0 0 199.04 53.23
  L 199.26 53.33
  A 5.64 1.47 -67.1 0 0 202.81 48.70
  L 202.89 48.52
  A 0.54 0.54 0.0 0 0 202.60 47.81
  Z
  M 226.9482 54.2945
  A 3.20 1.49 38.1 0 0 225.3494 51.1475
  A 3.20 1.49 38.1 0 0 221.9118 50.3455
  A 3.20 1.49 38.1 0 0 223.5106 53.4925
  A 3.20 1.49 38.1 0 0 226.9482 54.2945
  Z
  M 307.1203 53.9947
  A 3.09 1.71 -31.3 0 0 303.5916 54.1389
  A 3.09 1.71 -31.3 0 0 301.8397 57.2053
  A 3.09 1.71 -31.3 0 0 305.3684 57.0611
  A 3.09 1.71 -31.3 0 0 307.1203 53.9947
  Z
  M 267.7672 61.4604
  A 3.26 1.52 126.8 0 0 270.9371 59.7605
  A 3.26 1.52 126.8 0 0 271.6728 56.2396
  A 3.26 1.52 126.8 0 0 268.5029 57.9395
  A 3.26 1.52 126.8 0 0 267.7672 61.4604
  Z
  M 248.4645 57.2445
  A 3.08 1.81 -31.2 0 0 244.8924 57.2918
  A 3.08 1.81 -31.2 0 0 243.1955 60.4355
  A 3.08 1.81 -31.2 0 0 246.7676 60.3882
  A 3.08 1.81 -31.2 0 0 248.4645 57.2445
  Z
  M 192.2445 62.6550
  A 2.90 1.61 -15.5 0 0 189.0197 61.8786
  A 2.90 1.61 -15.5 0 0 186.6555 64.2050
  A 2.90 1.61 -15.5 0 0 189.8803 64.9814
  A 2.90 1.61 -15.5 0 0 192.2445 62.6550
  Z
  M 289.9218 66.0507
  A 1.12 1.12 0.0 0 0 289.4693 64.5328
  L 286.0739 62.6969
  A 1.12 1.12 0.0 0 0 284.5560 63.1494
  L 284.3182 63.5893
  A 1.12 1.12 0.0 0 0 284.7707 65.1072
  L 288.1661 66.9431
  A 1.12 1.12 0.0 0 0 289.6840 66.4906
  L 289.9218 66.0507
  Z
  M 320.2271 73.1836
  A 2.91 1.68 93.8 0 0 322.0963 70.3913
  A 2.91 1.68 93.8 0 0 320.6129 67.3764
  A 2.91 1.68 93.8 0 0 318.7437 70.1687
  A 2.91 1.68 93.8 0 0 320.2271 73.1836
  Z
  M 169.8372 70.2068
  A 3.14 1.47 14.7 0 0 167.1730 67.9881
  A 3.14 1.47 14.7 0 0 163.7628 68.6132
  A 3.14 1.47 14.7 0 0 166.4270 70.8319
  A 3.14 1.47 14.7 0 0 169.8372 70.2068
  Z
  M 215.1399 73.7652
  A 3.14 1.60 62.5 0 0 215.1092 70.2412
  A 3.14 1.60 62.5 0 0 212.2401 68.1948
  A 3.14 1.60 62.5 0 0 212.2708 71.7188
  A 3.14 1.60 62.5 0 0 215.1399 73.7652
  Z
  M 234.6482 70.5598
  A 3.10 1.74 -5.0 0 0 231.4083 69.0966
  A 3.10 1.74 -5.0 0 0 228.4718 71.1002
  A 3.10 1.74 -5.0 0 0 231.7117 72.5634
  A 3.10 1.74 -5.0 0 0 234.6482 70.5598
  Z
  M 300.4956 77.5860
  A 2.95 1.57 93.0 0 0 302.2178 74.7222
  A 2.95 1.57 93.0 0 0 300.8044 71.6940
  A 2.95 1.57 93.0 0 0 299.0822 74.5578
  A 2.95 1.57 93.0 0 0 300.4956 77.5860
  Z
  M 193.4880 81.5839
  A 3.18 1.53 109.7 0 0 196.0004 79.1058
  A 3.18 1.53 109.7 0 0 195.6320 75.5961
  A 3.18 1.53 109.7 0 0 193.1196 78.0742
  A 3.18 1.53 109.7 0 0 193.4880 81.5839
  Z
  M 244.63 79.88
  A 1.00 1.00 0.0 0 0 244.50 80.23
  L 243.94 83.38
  A 1.00 1.00 0.0 0 0 245.75 84.12
  L 248.10 80.68
  A 1.00 1.00 0.0 0 0 247.93 79.36
  L 246.87 78.45
  A 1.00 1.00 0.0 0 0 245.37 78.68
  L 244.63 79.88
  Z
  M 276.5608 79.4924
  A 3.01 1.75 -22.0 0 0 273.1144 78.9974
  A 3.01 1.75 -22.0 0 0 270.9792 81.7476
  A 3.01 1.75 -22.0 0 0 274.4256 82.2426
  A 3.01 1.75 -22.0 0 0 276.5608 79.4924
  Z
  M 160.1200 94.8785
  A 3.94 1.71 88.4 0 0 161.7193 90.8923
  A 3.94 1.71 88.4 0 0 159.9000 87.0015
  A 3.94 1.71 88.4 0 0 158.3007 90.9877
  A 3.94 1.71 88.4 0 0 160.1200 94.8785
  Z
  M 224.5857 91.4034
  A 3.25 1.62 35.2 0 0 222.8638 88.2062
  A 3.25 1.62 35.2 0 0 219.2743 87.6566
  A 3.25 1.62 35.2 0 0 220.9962 90.8538
  A 3.25 1.62 35.2 0 0 224.5857 91.4034
  Z
  M 185.5126 93.4097
  A 3.28 1.47 38.9 0 0 183.8831 90.2060
  A 3.28 1.47 38.9 0 0 180.4074 89.2903
  A 3.28 1.47 38.9 0 0 182.0369 92.4940
  A 3.28 1.47 38.9 0 0 185.5126 93.4097
  Z"
/>
<ellipse fill="#c62d2d" cx="0.00" cy="0.00" transform="translate(236.99,39.63) rotate(2.6)" rx="2.91" ry="1.73"/>
<rect fill="#c62d2d" x="-2.96" y="-1.42" transform="translate(275.75,41.19) rotate(33.9)" width="5.92" height="2.84" rx="1.29"/>
<ellipse fill="#c62d2d" cx="0.00" cy="0.00" transform="translate(255.87,43.55) rotate(67.0)" rx="2.95" ry="1.73"/>
<path fill="#c62d2d" d="
  M 202.60 47.81
  A 0.54 0.54 0.0 0 1 202.89 48.52
  L 202.81 48.70
  A 5.64 1.47 -67.1 0 1 199.26 53.33
  L 199.04 53.23
  A 5.64 1.47 -67.1 0 1 199.88 47.46
  L 199.96 47.28
  A 0.54 0.54 0.0 0 1 200.66 46.99
  L 202.60 47.81
  Z"
/>
<ellipse fill="#c62d2d" cx="0.00" cy="0.00" transform="translate(224.43,52.32) rotate(38.1)" rx="3.20" ry="1.49"/>
<ellipse fill="#c62d2d" cx="0.00" cy="0.00" transform="translate(304.48,55.60) rotate(-31.3)" rx="3.09" ry="1.71"/>
<ellipse fill="#c62d2d" cx="0.00" cy="0.00" transform="translate(269.72,58.85) rotate(126.8)" rx="3.26" ry="1.52"/>
<ellipse fill="#c62d2d" cx="0.00" cy="0.00" transform="translate(245.83,58.84) rotate(-31.2)" rx="3.08" ry="1.81"/>
<ellipse fill="#c62d2d" cx="0.00" cy="0.00" transform="translate(189.45,63.43) rotate(-15.5)" rx="2.90" ry="1.61"/>
<rect fill="#c62d2d" x="-3.05" y="-1.37" transform="translate(287.12,64.82) rotate(28.4)" width="6.10" height="2.74" rx="1.12"/>
<ellipse fill="#c62d2d" cx="0.00" cy="0.00" transform="translate(320.42,70.28) rotate(93.8)" rx="2.91" ry="1.68"/>
<ellipse fill="#c62d2d" cx="0.00" cy="0.00" transform="translate(166.80,69.41) rotate(14.7)" rx="3.14" ry="1.47"/>
<ellipse fill="#c62d2d" cx="0.00" cy="0.00" transform="translate(213.69,70.98) rotate(62.5)" rx="3.14" ry="1.60"/>
<ellipse fill="#c62d2d" cx="0.00" cy="0.00" transform="translate(231.56,70.83) rotate(-5.0)" rx="3.10" ry="1.74"/>
<ellipse fill="#c62d2d" cx="0.00" cy="0.00" transform="translate(300.65,74.64) rotate(93.0)" rx="2.95" ry="1.57"/>
<ellipse fill="#c62d2d" cx="0.00" cy="0.00" transform="translate(194.56,78.59) rotate(109.7)" rx="3.18" ry="1.53"/>
<path fill="#c62d2d" d="
  M 244.63 79.88
  L 245.37 78.68
  A 1.00 1.00 0.0 0 1 246.87 78.45
  L 247.93 79.36
  A 1.00 1.00 0.0 0 1 248.10 80.68
  L 245.75 84.12
  A 1.00 1.00 0.0 0 1 243.94 83.38
  L 244.50 80.23
  A 1.00 1.00 0.0 0 1 244.63 79.88
  Z"
/>
<ellipse fill="#c62d2d" cx="0.00" cy="0.00" transform="translate(273.77,80.62) rotate(-22.0)" rx="3.01" ry="1.75"/>
<ellipse fill="#c62d2d" cx="0.00" cy="0.00" transform="translate(160.01,90.94) rotate(88.4)" rx="3.94" ry="1.71"/>
<ellipse fill="#c62d2d" cx="0.00" cy="0.00" transform="translate(221.93,89.53) rotate(35.2)" rx="3.25" ry="1.62"/>
<ellipse fill="#c62d2d" cx="0.00" cy="0.00" transform="translate(182.96,91.35) rotate(38.9)" rx="3.28" ry="1.47"/>
<path fill="#ffffff" d="
  M 315.61 113.44
  L 313.07 113.57
  A 0.64 0.64 0.0 0 0 312.47 114.16
  L 310.85 134.86
  A 0.64 0.64 0.0 0 0 311.60 135.54
  L 314.71 135.02
  A 0.64 0.64 0.0 0 1 315.46 135.70
  L 314.85 143.44
  A 0.64 0.64 0.0 0 1 314.28 144.03
  L 294.77 146.05
  A 0.64 0.64 0.0 0 1 294.06 145.36
  L 294.70 137.54
  A 0.64 0.64 0.0 0 1 295.29 136.95
  L 298.89 136.69
  A 0.64 0.64 0.0 0 0 299.48 136.10
  L 301.03 115.59
  A 0.64 0.64 0.0 0 0 300.30 114.91
  L 297.64 115.31
  A 0.64 0.64 0.0 0 0 297.10 115.85
  L 296.42 120.71
  A 0.64 0.64 0.0 0 1 295.85 121.25
  L 287.80 122.10
  A 0.64 0.64 0.0 0 1 287.09 121.42
  L 288.05 107.05
  A 0.64 0.64 0.0 0 1 288.63 106.46
  L 326.04 102.74
  A 0.64 0.64 0.0 0 1 326.74 103.42
  L 325.63 117.80
  A 0.64 0.64 0.0 0 1 325.06 118.39
  L 316.89 119.26
  A 0.64 0.64 0.0 0 1 316.19 118.61
  L 316.28 114.10
  A 0.64 0.64 0.0 0 0 315.61 113.44
  Z"
/>
<path fill="#ffffff" d="
  M 252.80 146.99
  L 252.60 149.46
  Q 252.54 150.21 251.79 150.28
  L 233.73 152.03
  Q 232.94 152.10 233.00 151.31
  Q 233.28 148.02 233.57 144.56
  Q 233.64 143.68 235.85 143.48
  A 1.16 1.16 0.0 0 0 236.86 142.03
  L 236.58 140.93
  Q 236.29 139.85 235.18 139.96
  L 223.09 141.10
  A 1.94 1.90 -79.1 0 0 221.56 142.16
  L 220.68 143.94
  Q 220.20 144.90 221.29 144.85
  L 223.50 144.75
  Q 224.28 144.71 224.23 145.50
  L 223.73 152.28
  Q 223.67 152.99 222.97 153.06
  L 204.74 154.92
  Q 203.42 155.06 203.52 153.74
  L 204.02 147.45
  Q 204.17 145.57 206.05 145.77
  Q 207.31 145.91 208.35 145.40
  A 1.39 1.39 0.0 0 0 208.99 144.76
  L 219.79 122.89
  Q 220.20 122.06 219.28 122.17
  L 216.35 122.50
  Q 215.61 122.59 215.67 121.85
  L 216.32 114.55
  Q 216.41 113.51 217.46 113.40
  L 236.77 111.51
  A 0.86 0.86 0.0 0 1 237.65 112.06
  L 248.56 140.83
  Q 248.74 141.31 249.24 141.43
  Q 250.49 141.73 251.79 141.32
  Q 252.40 141.13 252.44 140.50
  L 252.75 136.30
  A 1.07 1.06 -1.3 0 1 253.70 135.32
  L 261.38 134.49
  Q 262.37 134.38 262.37 135.38
  L 262.36 138.63
  A 0.66 0.66 0.0 0 0 262.91 139.28
  C 266.44 139.88 272.66 140.03 275.04 136.80
  A 2.10 2.10 0.0 0 0 274.79 134.04
  Q 273.69 133.01 271.99 132.87
  C 267.61 132.49 262.75 132.76 258.84 130.78
  C 253.06 127.84 252.13 120.07 255.48 114.93
  C 258.49 110.32 263.99 108.50 269.29 107.66
  Q 278.59 106.20 285.33 110.01
  A 1.18 1.17 17.0 0 1 285.93 111.13
  L 285.37 119.20
  Q 285.29 120.35 284.14 120.40
  Q 280.27 120.56 276.42 121.16
  Q 275.41 121.32 275.49 120.30
  L 275.76 117.10
  Q 275.81 116.51 275.23 116.43
  Q 271.75 115.92 268.35 116.90
  C 264.47 118.03 263.29 123.08 268.31 123.19
  C 277.18 123.38 287.75 124.26 286.69 136.32
  C 285.71 147.44 271.19 149.31 262.80 149.11
  Q 257.45 148.98 253.42 146.67
  Q 252.86 146.34 252.80 146.99
  Z
  M 226.37 131.25
  A 0.45 0.45 0.0 0 0 226.83 131.88
  L 232.98 131.22
  A 0.45 0.45 0.0 0 0 233.36 130.63
  L 230.83 122.81
  A 0.45 0.45 0.0 0 0 229.99 122.77
  L 226.37 131.25
  Z"
/>
<path fill="#ffffff" d="
  M 188.15 132.80
  L 197.48 131.80
  A 0.18 0.18 0.0 0 1 197.68 131.99
  Q 197.32 139.87 196.83 141.03
  Q 196.80 141.11 196.71 141.12
  L 187.54 142.05
  Q 186.72 142.14 186.67 142.96
  L 186.46 146.77
  Q 186.39 147.92 187.53 147.75
  L 190.14 147.36
  Q 191.62 147.14 191.50 148.64
  L 190.97 154.86
  Q 190.85 156.25 189.46 156.39
  L 170.82 158.25
  Q 170.08 158.32 170.14 157.58
  L 170.75 149.94
  Q 170.81 149.20 171.55 149.15
  L 174.03 148.98
  A 1.35 1.35 0.0 0 0 175.29 147.72
  L 176.82 126.98
  A 0.70 0.70 0.0 0 0 175.86 126.28
  Q 174.55 126.80 173.23 126.74
  Q 172.56 126.72 172.60 126.04
  L 173.05 118.24
  Q 173.07 117.80 173.51 117.76
  L 207.53 114.42
  Q 208.21 114.35 208.16 115.03
  L 207.24 126.99
  Q 207.17 127.91 206.25 128.01
  L 199.97 128.66
  Q 198.35 128.83 198.71 127.24
  Q 198.93 126.25 198.71 125.32
  Q 198.56 124.73 197.96 124.79
  L 188.31 125.80
  Q 187.93 125.84 187.91 126.22
  L 187.59 132.26
  A 0.52 0.51 88.6 0 0 188.15 132.80
  Z"
/>
<path fill="#c62d2d" d="
  M 226.37 131.25
  L 229.99 122.77
  A 0.45 0.45 0.0 0 1 230.83 122.81
  L 233.36 130.63
  A 0.45 0.45 0.0 0 1 232.98 131.22
  L 226.83 131.88
  A 0.45 0.45 0.0 0 1 226.37 131.25
  Z"
/>
<path fill="#ffffff" d="
  M 293.81 159.02
  A 0.68 0.67 -2.4 0 0 293.03 158.31
  L 290.35 158.76
  Q 289.56 158.89 289.62 158.09
  L 290.10 150.61
  A 1.03 1.02 89.4 0 1 291.02 149.66
  Q 300.57 148.73 310.00 147.79
  C 321.42 146.66 330.53 150.86 331.21 163.76
  Q 332.01 179.04 319.77 185.16
  Q 314.45 187.83 304.86 188.59
  Q 296.60 189.24 288.20 190.21
  Q 287.15 190.33 287.24 189.28
  L 287.82 182.29
  Q 287.92 181.00 289.21 181.02
  L 290.94 181.04
  Q 292.18 181.06 292.27 179.82
  L 293.81 159.02
  Z
  M 312.00 177.81
  C 317.94 176.11 320.81 169.74 319.82 163.90
  C 318.51 156.17 312.04 156.59 305.62 157.74
  Q 305.04 157.85 304.99 158.44
  L 303.45 178.53
  A 0.44 0.44 0.0 0 0 303.91 179.00
  Q 308.43 178.84 312.00 177.81
  Z"
/>
<path fill="#ffffff" d="
  M 201.47 169.78
  C 206.66 159.11 218.02 154.57 229.33 155.89
  Q 241.62 157.33 243.61 169.57
  Q 243.75 170.43 243.99 169.59
  C 247.90 156.06 260.97 149.61 274.50 151.78
  C 285.71 153.58 289.40 163.83 287.48 174.08
  Q 285.86 182.80 278.81 187.86
  C 268.15 195.52 244.86 196.61 243.73 178.12
  Q 243.71 177.84 243.65 178.11
  Q 240.49 191.86 227.09 195.88
  C 216.70 199.00 202.85 197.80 200.08 185.03
  Q 198.69 178.63 200.49 172.62
  Q 200.70 171.91 199.97 171.99
  L 193.31 172.75
  A 0.66 0.65 -1.5 0 1 192.58 172.06
  L 192.73 169.59
  A 0.82 0.81 -1.5 0 0 191.83 168.74
  L 182.24 169.78
  Q 181.80 169.83 181.78 170.26
  L 181.43 176.22
  Q 181.39 176.81 181.98 176.75
  L 191.26 175.81
  A 0.37 0.37 0.0 0 1 191.66 176.21
  L 190.93 184.69
  A 0.49 0.49 0.0 0 1 190.49 185.14
  L 181.47 186.00
  A 1.08 1.08 0.0 0 0 180.49 187.03
  L 180.32 190.95
  A 0.77 0.76 -3.1 0 0 181.20 191.73
  L 184.66 191.20
  A 0.68 0.67 -2.0 0 1 185.44 191.92
  L 184.82 199.25
  A 1.18 1.17 89.7 0 1 183.76 200.33
  L 164.87 202.18
  Q 163.98 202.27 164.04 201.38
  L 164.57 194.04
  Q 164.63 193.21 165.46 193.14
  L 168.18 192.92
  A 1.01 1.00 -0.4 0 0 169.11 191.99
  L 170.68 170.97
  A 0.67 0.66 -6.8 0 0 169.81 170.29
  Q 168.42 170.76 167.02 170.72
  Q 166.36 170.71 166.41 170.05
  L 166.94 162.48
  A 0.92 0.90 89.7 0 1 167.76 161.64
  L 201.51 158.36
  Q 202.09 158.31 202.04 158.88
  L 201.17 169.70
  Q 201.10 170.54 201.47 169.78
  Z
  M 257.6325 181.0993
  A 12.04 10.16 132.2 0 0 273.2466 179.0047
  A 12.04 10.16 132.2 0 0 273.8075 163.2607
  A 12.04 10.16 132.2 0 0 258.1934 165.3553
  A 12.04 10.16 132.2 0 0 257.6325 181.0993
  Z
  M 213.5904 185.3226
  A 12.04 10.16 132.6 0 0 229.2187 183.3371
  A 12.04 10.16 132.6 0 0 229.8896 167.5974
  A 12.04 10.16 132.6 0 0 214.2613 169.5829
  A 12.04 10.16 132.6 0 0 213.5904 185.3226
  Z"
/>
<path fill="#c62d2d" d="
  M 319.82 163.90
  C 320.81 169.74 317.94 176.11 312.00 177.81
  Q 308.43 178.84 303.91 179.00
  A 0.44 0.44 0.0 0 1 303.45 178.53
  L 304.99 158.44
  Q 305.04 157.85 305.62 157.74
  C 312.04 156.59 318.51 156.17 319.82 163.90
  Z"
/>
<ellipse fill="#c62d2d" cx="0.00" cy="0.00" transform="translate(265.72,172.18) rotate(132.2)" rx="12.04" ry="10.16"/>
<ellipse fill="#c62d2d" cx="0.00" cy="0.00" transform="translate(221.74,176.46) rotate(132.6)" rx="12.04" ry="10.16"/>
<path fill="#efa216" d="
  M 358.10 199.62
  A 3.78 3.78 0.0 0 1 362.23 203.02
  L 363.21 212.95
  A 38.69 26.80 -5.6 0 1 327.32 243.40
  L 188.30 257.03
  A 38.69 26.80 -5.6 0 1 147.18 234.13
  L 146.21 224.20
  A 3.78 3.78 0.0 0 1 149.60 220.07
  L 358.10 199.62
  Z
  M 220.64 230.23
  A 0.41 0.41 0.0 0 1 220.28 229.75
  L 220.53 228.33
  A 0.41 0.41 0.0 0 1 220.93 227.99
  L 223.54 227.95
  A 0.41 0.41 0.0 0 0 223.95 227.55
  L 223.99 226.43
  A 0.41 0.41 0.0 0 0 223.63 226.01
  L 220.84 225.70
  A 0.41 0.41 0.0 0 1 220.48 225.33
  L 220.35 224.06
  A 0.41 0.41 0.0 0 1 220.73 223.61
  L 224.14 223.37
  A 0.41 0.41 0.0 0 0 224.52 222.99
  L 224.61 221.79
  A 0.41 0.41 0.0 0 0 224.20 221.35
  L 218.08 221.31
  A 0.41 0.41 0.0 0 0 217.67 221.72
  L 217.61 232.24
  A 0.41 0.41 0.0 0 0 218.02 232.65
  L 224.25 232.64
  A 0.41 0.41 0.0 0 0 224.66 232.21
  L 224.61 231.02
  A 0.41 0.41 0.0 0 0 224.25 230.63
  L 220.64 230.23
  Z
  M 233.90 223.94
  A 0.67 0.67 0.0 0 1 232.78 223.94
  L 231.67 222.24
  A 2.31 2.27 80.8 0 0 230.39 221.30
  Q 229.49 221.05 228.76 221.37
  Q 228.11 221.66 228.52 222.23
  L 231.24 226.07
  A 1.36 1.35 43.7 0 1 231.28 227.57
  L 228.56 231.85
  Q 228.11 232.56 228.95 232.64
  L 229.69 232.71
  A 1.85 1.84 24.5 0 0 231.21 232.15
  Q 232.00 231.33 232.46 230.22
  A 0.69 0.69 0.0 0 1 233.65 230.07
  L 235.03 231.89
  A 2.16 2.15 -21.0 0 0 236.95 232.74
  L 237.42 232.70
  Q 238.61 232.59 237.96 231.59
  L 235.33 227.50
  A 1.15 1.15 0.0 0 1 235.33 226.24
  L 237.98 222.23
  A 0.63 0.63 0.0 0 0 237.47 221.26
  L 237.02 221.25
  A 2.43 2.43 0.0 0 0 234.90 222.37
  L 233.90 223.94
  Z
  M 245.27 229.25
  Q 245.31 228.42 246.14 228.51
  C 251.52 229.07 252.89 222.47 248.11 221.57
  Q 245.45 221.07 242.99 221.46
  A 0.60 0.58 -5.1 0 0 242.48 222.05
  L 242.50 231.60
  A 1.08 1.07 3.7 0 0 243.44 232.66
  L 243.98 232.72
  Q 245.06 232.86 245.12 231.77
  L 245.27 229.25
  Z
  M 257.75 229.81
  Q 257.95 227.69 259.02 229.54
  Q 259.60 230.55 260.12 231.63
  A 1.90 1.90 0.0 0 0 261.86 232.70
  L 262.63 232.69
  Q 263.79 232.68 263.21 231.67
  L 261.73 229.13
  Q 261.47 228.70 261.74 228.27
  C 262.34 227.32 263.34 226.70 263.57 225.54
  C 264.43 221.18 258.83 221.06 255.75 221.38
  Q 254.99 221.46 254.99 222.22
  L 254.99 231.74
  A 0.97 0.97 0.0 0 0 256.00 232.70
  L 256.71 232.67
  Q 257.90 232.61 257.77 231.43
  Q 257.68 230.57 257.75 229.81
  Z
  M 270.54 228.67
  Q 270.63 227.97 271.33 227.97
  L 273.45 227.99
  A 0.71 0.70 -88.3 0 0 274.16 227.31
  Q 274.18 227.10 274.19 226.90
  Q 274.28 225.91 273.29 225.86
  L 271.27 225.76
  Q 270.57 225.72 270.52 225.02
  L 270.49 224.54
  Q 270.41 223.50 271.46 223.50
  L 273.74 223.49
  Q 274.62 223.49 274.72 222.61
  L 274.76 222.32
  Q 274.84 221.58 274.10 221.48
  Q 271.52 221.15 268.54 221.41
  A 0.89 0.87 -2.5 0 0 267.73 222.28
  L 267.74 231.84
  Q 267.74 232.69 268.59 232.68
  L 273.81 232.64
  Q 274.32 232.64 274.60 232.21
  Q 275.01 231.59 274.68 231.00
  Q 274.42 230.53 273.88 230.50
  L 271.30 230.32
  Q 270.33 230.25 270.46 229.30
  L 270.54 228.67
  Z
  M 281.56 223.66
  Q 281.78 223.34 282.14 223.48
  L 285.45 224.73
  A 0.79 0.79 0.0 0 0 286.50 224.16
  Q 286.74 223.15 285.91 222.53
  Q 283.30 220.58 280.49 221.61
  C 277.57 222.69 277.71 226.78 280.82 227.54
  Q 282.40 227.92 283.68 228.88
  A 0.80 0.80 0.0 0 1 283.82 230.02
  L 283.65 230.23
  A 0.81 0.80 34.7 0 1 282.63 230.41
  Q 280.93 229.39 279.26 229.17
  Q 278.69 229.10 278.58 229.67
  Q 278.36 230.91 279.49 231.64
  Q 282.86 233.81 285.59 231.83
  C 287.14 230.71 287.23 228.36 285.83 227.07
  C 284.66 225.99 282.98 226.00 281.64 225.14
  A 0.87 0.87 0.0 0 1 281.39 223.92
  L 281.56 223.66
  Z
  M 293.64 223.77
  A 0.53 0.53 0.0 0 1 294.33 223.44
  L 297.40 224.61
  Q 298.46 225.01 298.70 223.90
  Q 298.87 223.11 297.70 222.24
  Q 297.17 221.84 296.55 221.62
  Q 293.62 220.57 291.52 222.40
  C 289.84 223.86 290.75 226.91 292.91 227.48
  Q 294.55 227.92 295.85 228.78
  Q 296.23 229.03 296.21 229.49
  Q 296.20 229.71 296.08 229.89
  Q 295.52 230.79 294.57 230.33
  L 292.11 229.12
  A 0.94 0.94 0.0 0 0 290.82 230.30
  C 292.10 233.56 297.24 233.53 298.84 230.54
  C 300.60 227.26 295.99 226.02 294.08 225.27
  Q 293.26 224.95 293.53 224.11
  L 293.64 223.77
  Z"
/>
<path fill="#ffffff" d="
  M 220.64 230.23
  L 224.25 230.63
  A 0.41 0.41 0.0 0 1 224.61 231.02
  L 224.66 232.21
  A 0.41 0.41 0.0 0 1 224.25 232.64
  L 218.02 232.65
  A 0.41 0.41 0.0 0 1 217.61 232.24
  L 217.67 221.72
  A 0.41 0.41 0.0 0 1 218.08 221.31
  L 224.20 221.35
  A 0.41 0.41 0.0 0 1 224.61 221.79
  L 224.52 222.99
  A 0.41 0.41 0.0 0 1 224.14 223.37
  L 220.73 223.61
  A 0.41 0.41 0.0 0 0 220.35 224.06
  L 220.48 225.33
  A 0.41 0.41 0.0 0 0 220.84 225.70
  L 223.63 226.01
  A 0.41 0.41 0.0 0 1 223.99 226.43
  L 223.95 227.55
  A 0.41 0.41 0.0 0 1 223.54 227.95
  L 220.93 227.99
  A 0.41 0.41 0.0 0 0 220.53 228.33
  L 220.28 229.75
  A 0.41 0.41 0.0 0 0 220.64 230.23
  Z"
/>
<path fill="#ffffff" d="
  M 233.90 223.94
  L 234.90 222.37
  A 2.43 2.43 0.0 0 1 237.02 221.25
  L 237.47 221.26
  A 0.63 0.63 0.0 0 1 237.98 222.23
  L 235.33 226.24
  A 1.15 1.15 0.0 0 0 235.33 227.50
  L 237.96 231.59
  Q 238.61 232.59 237.42 232.70
  L 236.95 232.74
  A 2.16 2.15 -21.0 0 1 235.03 231.89
  L 233.65 230.07
  A 0.69 0.69 0.0 0 0 232.46 230.22
  Q 232.00 231.33 231.21 232.15
  A 1.85 1.84 24.5 0 1 229.69 232.71
  L 228.95 232.64
  Q 228.11 232.56 228.56 231.85
  L 231.28 227.57
  A 1.36 1.35 43.7 0 0 231.24 226.07
  L 228.52 222.23
  Q 228.11 221.66 228.76 221.37
  Q 229.49 221.05 230.39 221.30
  A 2.31 2.27 80.8 0 1 231.67 222.24
  L 232.78 223.94
  A 0.67 0.67 0.0 0 0 233.90 223.94
  Z"
/>
<path fill="#ffffff" d="
  M 245.27 229.25
  L 245.12 231.77
  Q 245.06 232.86 243.98 232.72
  L 243.44 232.66
  A 1.08 1.07 3.7 0 1 242.50 231.60
  L 242.48 222.05
  A 0.60 0.58 -5.1 0 1 242.99 221.46
  Q 245.45 221.07 248.11 221.57
  C 252.89 222.47 251.52 229.07 246.14 228.51
  Q 245.31 228.42 245.27 229.25
  Z
  M 245.23 224.03
  L 245.15 225.85
  A 0.53 0.53 0.0 0 0 245.66 226.40
  L 246.13 226.42
  A 2.04 1.29 2.6 0 0 248.22 225.23
  L 248.24 224.93
  A 2.04 1.29 2.6 0 0 246.26 223.55
  L 245.79 223.53
  A 0.53 0.53 0.0 0 0 245.23 224.03
  Z"
/>
<path fill="#ffffff" d="
  M 257.75 229.81
  Q 257.68 230.57 257.77 231.43
  Q 257.90 232.61 256.71 232.67
  L 256.00 232.70
  A 0.97 0.97 0.0 0 1 254.99 231.74
  L 254.99 222.22
  Q 254.99 221.46 255.75 221.38
  C 258.83 221.06 264.43 221.18 263.57 225.54
  C 263.34 226.70 262.34 227.32 261.74 228.27
  Q 261.47 228.70 261.73 229.13
  L 263.21 231.67
  Q 263.79 232.68 262.63 232.69
  L 261.86 232.70
  A 1.90 1.90 0.0 0 1 260.12 231.63
  Q 259.60 230.55 259.02 229.54
  Q 257.95 227.69 257.75 229.81
  Z
  M 260.9224 224.8681
  A 1.72 1.47 -5.4 0 0 259.0717 223.5665
  A 1.72 1.47 -5.4 0 0 257.4976 225.1919
  A 1.72 1.47 -5.4 0 0 259.3483 226.4935
  A 1.72 1.47 -5.4 0 0 260.9224 224.8681
  Z"
/>
<path fill="#ffffff" d="
  M 271.30 230.32
  L 273.88 230.50
  Q 274.42 230.53 274.68 231.00
  Q 275.01 231.59 274.60 232.21
  Q 274.32 232.64 273.81 232.64
  L 268.59 232.68
  Q 267.74 232.69 267.74 231.84
  L 267.73 222.28
  A 0.89 0.87 -2.5 0 1 268.54 221.41
  Q 271.52 221.15 274.10 221.48
  Q 274.84 221.58 274.76 222.32
  L 274.72 222.61
  Q 274.62 223.49 273.74 223.49
  L 271.46 223.50
  Q 270.41 223.50 270.49 224.54
  L 270.52 225.02
  Q 270.57 225.72 271.27 225.76
  L 273.29 225.86
  Q 274.28 225.91 274.19 226.90
  Q 274.18 227.10 274.16 227.31
  A 0.71 0.70 -88.3 0 1 273.45 227.99
  L 271.33 227.97
  Q 270.63 227.97 270.54 228.67
  L 270.46 229.30
  Q 270.33 230.25 271.30 230.32
  Z"
/>
<path fill="#ffffff" d="
  M 281.56 223.66
  L 281.39 223.92
  A 0.87 0.87 0.0 0 0 281.64 225.14
  C 282.98 226.00 284.66 225.99 285.83 227.07
  C 287.23 228.36 287.14 230.71 285.59 231.83
  Q 282.86 233.81 279.49 231.64
  Q 278.36 230.91 278.58 229.67
  Q 278.69 229.10 279.26 229.17
  Q 280.93 229.39 282.63 230.41
  A 0.81 0.80 34.7 0 0 283.65 230.23
  L 283.82 230.02
  A 0.80 0.80 0.0 0 0 283.68 228.88
  Q 282.40 227.92 280.82 227.54
  C 277.71 226.78 277.57 222.69 280.49 221.61
  Q 283.30 220.58 285.91 222.53
  Q 286.74 223.15 286.50 224.16
  A 0.79 0.79 0.0 0 1 285.45 224.73
  L 282.14 223.48
  Q 281.78 223.34 281.56 223.66
  Z"
/>
<path fill="#ffffff" d="
  M 293.64 223.77
  L 293.53 224.11
  Q 293.26 224.95 294.08 225.27
  C 295.99 226.02 300.60 227.26 298.84 230.54
  C 297.24 233.53 292.10 233.56 290.82 230.30
  A 0.94 0.94 0.0 0 1 292.11 229.12
  L 294.57 230.33
  Q 295.52 230.79 296.08 229.89
  Q 296.20 229.71 296.21 229.49
  Q 296.23 229.03 295.85 228.78
  Q 294.55 227.92 292.91 227.48
  C 290.75 226.91 289.84 223.86 291.52 222.40
  Q 293.62 220.57 296.55 221.62
  Q 297.17 221.84 297.70 222.24
  Q 298.87 223.11 298.70 223.90
  Q 298.46 225.01 297.40 224.61
  L 294.33 223.44
  A 0.53 0.53 0.0 0 0 293.64 223.77
  Z"
/>
<path fill="#efa216" d="
  M 245.23 224.03
  A 0.53 0.53 0.0 0 1 245.79 223.53
  L 246.26 223.55
  A 2.04 1.29 2.6 0 1 248.24 224.93
  L 248.22 225.23
  A 2.04 1.29 2.6 0 1 246.13 226.42
  L 245.66 226.40
  A 0.53 0.53 0.0 0 1 245.15 225.85
  L 245.23 224.03
  Z"
/>
<ellipse fill="#efa216" cx="0.00" cy="0.00" transform="translate(259.21,225.03) rotate(-5.4)" rx="1.72" ry="1.47"/>
</svg>
