<?xml version="1.0" encoding="UTF-8" standalone="no"?>
<!DOCTYPE svg PUBLIC "-//W3C//DTD SVG 1.1//EN" "http://www.w3.org/Graphics/SVG/1.1/DTD/svg11.dtd">
<svg xmlns="http://www.w3.org/2000/svg" version="1.1" viewBox="0.00 0.00 200.00 200.00">
<path fill="#ffffff" d="
  M 137.26 56.99
  L 185.37 56.96
  A 0.28 0.28 0.0 0 1 185.65 57.24
  Q 185.55 109.08 185.71 160.86
  Q 185.75 172.44 184.26 176.94
  C 180.08 189.55 168.70 198.20 155.30 198.19
  Q 102.55 198.18 44.47 198.20
  C 27.62 198.21 13.99 184.93 13.99 167.92
  Q 14.00 110.21 13.99 57.68
  Q 13.99 56.98 14.69 56.98
  L 62.51 56.98
  Q 63.01 56.98 63.01 56.48
  C 62.94 46.27 62.38 36.67 65.59 26.91
  C 72.23 6.73 93.02 -4.17 113.05 4.46
  C 126.58 10.30 134.82 23.55 136.15 38.04
  Q 136.89 46.20 136.49 56.19
  Q 136.46 56.99 137.26 56.99
  Z
  M 75.37 57.07
  L 124.03 56.90
  A 0.27 0.27 0.0 0 0 124.29 56.63
  L 124.24 42.00
  A 28.34 23.93 89.8 0 0 100.21 13.75
  L 98.87 13.75
  A 28.34 23.93 89.8 0 0 75.04 42.18
  L 75.09 56.81
  A 0.27 0.27 0.0 0 0 75.37 57.07
  Z
  M 135.91 75.19
  L 125.06 75.18
  Q 124.44 75.18 124.44 74.56
  L 124.46 69.74
  Q 124.46 69.02 123.74 69.02
  L 75.82 69.02
  Q 75.17 69.02 75.16 69.68
  L 75.14 74.53
  Q 75.14 75.19 74.47 75.19
  L 63.61 75.21
  Q 63.00 75.21 63.00 74.60
  L 63.00 69.51
  Q 63.01 69.02 62.51 69.02
  L 26.47 69.03
  A 0.48 0.47 -0.0 0 0 25.99 69.50
  Q 26.00 115.63 26.00 167.49
  C 26.00 177.38 33.87 186.02 44.02 186.02
  Q 98.19 186.00 156.42 185.99
  Q 159.08 185.99 161.85 184.82
  C 169.45 181.61 173.57 174.91 173.56 166.76
  Q 173.47 116.14 173.51 69.52
  Q 173.51 69.03 173.02 69.03
  L 137.24 69.02
  Q 136.62 69.02 136.61 69.63
  L 136.52 74.59
  Q 136.51 75.19 135.91 75.19
  Z"
/>
</svg>
